# xmcd CD database file
#
# Track frame offsets:
#	150
#	5392
#	29142
#	51812
#	68380
#	94130
#	115427
#	129907
#	153442
#	186657
#	209767
#	225287
#	243687
#
# Disc length: 3397 seconds
#
# Revision: 0
# Processed by: cddbd v1.5.1PL0 Copyright (c) Steve Scherf et al.
# Submitted via: CDex 1.60beta1
#
DISCID=b40d430d
DTITLE=The Unknown - 「July」の世界 音楽集
DYEAR=1999
DGENRE=Game
TTITLE0=Prophet
TTITLE1=M
TTITLE2=Peculiar
TTITLE3=Piano Forte
TTITLE4=July Unpublished〜The Piano
TTITLE5=July Unpublished〜Ethnic
TTITLE6=Theme of Mother Karmainn
TTITLE7=Denomination
TTITLE8=Psychology
TTITLE9=Snack Mary
TTITLE10=July
TTITLE11=Forsythia
TTITLE12=July Demo Version
EXTD=YEAR: 1999
EXTT0=
EXTT1=
EXTT2=
EXTT3=
EXTT4=
EXTT5=
EXTT6=
EXTT7=
EXTT8=
EXTT9=
EXTT10=
EXTT11=
EXTT12=
PLAYORDER=
